#!OML:ASF E:/inclinewalkrobotboard/Project1/Captureday1/Session1/subject1.ASF
:FULLY-SPECIFIED
:DEGREES
126
root 0 0 0 1.0469788733219603 -3.6584219730860297 1.834846731525286
lowerback 11.97824701754162 0.8513201849968145 -0.06855976170456968
upperback -4.235290925047078 1.0801520225888759 -0.5460754151174549
thorax -11.346420454946298 0.4945973060456917 -0.7847458455975433
lowerneck -5.816835437644924 1.4893097588464985 4.557756725553157
upperneck 18.056166341724424 2.943467842590766 -8.32562405584058
head 6.602415435967058 1.075196790287308 -3.217755020589963
rclavicle 1.2808034841668999E-16 -2.0330707159631455E-15
rhumerus 19.83945410529461 14.304186422814167 -47.75577930314747
rradius 72.19774043410231
rwrist 27.13461357241365
rhand -34.66945175556401 -57.14002920465629
rfingers 7.125020000000034
rthumb -7.8206799931866415 -87.19434320099191
lclavicle -2.0220295427994127E-16 -4.360164992662938E-16
lhumerus 21.007480045737317 -12.425831599353012 45.336488137383746
lradius 70.00427916260084
lwrist -22.254273769642616
lhand -44.79618042709613 -70.3236490124405
lfingers 7.125020000000027
lthumb -17.583440398345537 -41.004185733958266
rfemur -24.701834801162097 -2.3152400069864063 17.110215955182547
rtibia 54.51617093764701
rfoot -28.971078718520285 -16.651633288570338
rtoes -18.46996428261863
lfemur -25.938180174542815 2.432683232635185 -18.072159808916943
ltibia 53.22030185889661
lfoot -30.781618041388725 -3.468580309184793
ltoes -20.780523397170175
127
root 0 0 0 1.0436099406776067 -3.66476079329241 1.8329649249345048
lowerback 11.97842690739812 0.8505120722675863 -0.0660853169569543
upperback -4.2331702787619765 1.0795284766189626 -0.5446337550463358
thorax -11.344168327245544 0.4942397062001637 -0.7844311620277686
lowerneck -5.800308785684178 1.4879950067141436 4.560998715163547
upperneck 18.04641471125415 2.9425369324496593 -8.333968321806504
head 6.59644062448489 1.0746933937191803 -3.2209538073663424
rclavicle 1.3268890540116717E-16 -2.044170079843721E-15
rhumerus 19.857961249960965 14.320267882618463 -47.747870417116275
rradius 72.21113732416028
rwrist 27.134950507368654
rhand -34.65721532507312 -57.13324332645624
rfingers 7.125020000000034
rthumb -7.8089895807282605 -87.1878976854307
lclavicle -1.867999776468201E-16 -4.481081720425271E-16
lhumerus 21.018378250876175 -12.437139912196391 45.32244346479142
lradius 70.01622592839288
lwrist -22.259330599298085
lhand -44.79319350466761 -70.30479870150829
lfingers 7.125020000000027
lthumb -17.580814898301128 -40.98418076854302
rfemur -24.699844849798517 -2.3153699862810946 17.1105898771945
rtibia 54.51246232749689
rfoot -28.986904200858078 -16.654369068029613
rtoes -18.487085224318264
lfemur -25.922611389479485 2.4340671914464536 -18.069060756503042
ltibia 53.20404149039195
lfoot -30.79114923992443 -3.4609220991367655
ltoes -20.822935776580337
128
root 0 0 0 1.041238329864311 -3.6692133044186406 1.8314519358104873
lowerback 11.978576205608672 0.8499139946076761 -0.06426943066154492
upperback -4.231652065648154 1.0790664481573289 -0.5435718352062036
thorax -11.342597125691558 0.4939736971796032 -0.7841968366977462
lowerneck -5.788643053014683 1.48708041587479 4.563221886313195
upperneck 18.039486804474983 2.941926577560289 -8.339769265196885
head 6.592209905594463 1.0743359022108354 -3.223154875549934
rclavicle 1.4863432443317422E-16 -2.0315901685564894E-15
rhumerus 19.87286322471579 14.334960288148189 -47.741914065733
rradius 72.2208908691473
rwrist 27.131654054271806
rhand -34.639694974010844 -57.1140157204188
rfingers 7.125020000000035
rthumb -7.792115651427622 -87.16840831571804
lclavicle -1.7128812443056032E-16 -4.379320860405086E-16
lhumerus 21.025643070349844 -12.44821672624308 45.31087201875867
lradius 70.02343551317503
lwrist -22.261477760065368
lhand -44.78730557276956 -70.26664492086495
lfingers 7.125020000000027
lthumb -17.57509020513652 -40.94575008315466
rfemur -24.69662177996115 -2.3137311551149886 17.111071410254574
rtibia 54.50278991789774
rfoot -28.992433514461087 -16.654509520434384
rtoes -18.49189494415193
lfemur -25.90687870366146 2.435751896890057 -18.065866328349195
ltibia 53.193331144483594
lfoot -30.79641589047403 -3.456901940953591
ltoes -20.859362614024533
129
root 0 0 0 1.0404909164856273 -3.670482921843743 1.8310634941035082
lowerback 11.978588685913094 0.8497570181569116 -0.06371441478017728
upperback -4.231210433013342 1.078949781013686 -0.543277060619837
thorax -11.34209409177241 0.4939067931174395 -0.7841568381207095
lowerneck -5.785343215977562 1.4868275630974659 4.563935827269313
upperneck 18.037541763962114 2.9417446750200114 -8.341511602559551
head 6.59101141387879 1.0742474067288215 -3.22383370259756
rclavicle 1.8466379133135482E-16 -2.038178318792596E-15
rhumerus 19.878815856132874 14.340335923633532 -47.74069665335842
rradius 72.22548394738499
rwrist 27.131445896356762
rhand -34.63722493474141 -57.113238348674244
rfingers 7.125020000000035
rthumb -7.78989699762788 -87.1678455728065
lclavicle -1.3461871660672733E-16 -4.501143746810664E-16
lhumerus 21.02657688361981 -12.450121366132285 45.307504202801276
lradius 70.0257349057792
lwrist -22.26327796399077
lhand -44.78594100912698 -70.26243757141648
lfingers 7.125020000000027
lthumb -17.573910103068304 -40.94104165940751
rfemur -24.69718297911008 -2.3147303514473707 17.11100783674741
rtibia 54.508216197046885
rfoot -28.99330282465421 -16.654681772343004
rtoes -18.49518629541175
lfemur -25.905172664480737 2.437285960832902 -18.065217291864148
ltibia 53.195847186760155
lfoot -30.79268698891063 -3.4580430341751756
ltoes -20.86487854144986
130
root 0 0 0 1.040079612086098 -3.671201226044045 1.8308187435942778
lowerback 11.97860696580869 0.8496621034930162 -0.0634060941836726
upperback -4.230957286246911 1.0788778433658026 -0.5431053442912149
thorax -11.34182417092554 0.49386533410259503 -0.7841265816106641
lowerneck -5.783440021992182 1.4866834210537907 4.564320141875621
upperneck 18.036410644819874 2.9416490610938166 -8.342479849399233
head 6.590319444793137 1.0741931510212335 -3.2242041609200562
rclavicle 1.8484386247014843E-16 -2.036880273490888E-15
rhumerus 19.881177293404036 14.342539931818592 -47.7395407686423
rradius 72.22700647019117
rwrist 27.131187179475972
rhand -34.63441123218238 -57.110313161337174
rfingers 7.125020000000035
rthumb -7.7872003139301835 -87.16492970344945
lclavicle -1.334768236645557E-16 -4.492348517433796E-16
lhumerus 21.02764093680893 -12.45182999480942 45.30565783328904
lradius 70.02685925887639
lwrist -22.263664495437773
lhand -44.785021802312876 -70.25680711503789
lfingers 7.125020000000026
lthumb -17.573041184844072 -40.935284849756215
rfemur -24.697355980174166 -2.3148912068123004 17.111115363847798
rtibia 54.509142724671904
rfoot -28.993581070179907 -16.654601425366998
rtoes -18.495151169049464
lfemur -25.90372420884729 2.438158404681668 -18.064740429348735
ltibia 53.197194081110766
lfoot -30.7916619474038 -3.458063448938346
ltoes -20.868556313006522
131
root 0 0 0 1.0398743975022608 -3.671570229734253 1.8306833561609093
lowerback 11.978630893874785 0.8496083401510773 -0.06324218120560093
upperback -4.230819497339932 1.0788361129770274 -0.5430121861086769
thorax -11.341686498027629 0.4938413114794464 -0.7841079825255228
lowerneck -5.782445499947892 1.4865981308458756 4.56450532026068
upperneck 18.0357952956869 2.941586160768011 -8.342972910499789
head 6.589950459867987 1.0741581146095975 -3.2243915704144124
rclavicle 1.8640818380666623E-16 -2.0359922280374286E-15
rhumerus 19.88237385522839 14.34368926359567 -47.73905590592478
rradius 72.22777675957444
rwrist 27.13096558589421
rhand -34.633002196921176 -57.10873690753388
rfingers 7.125020000000035
rthumb -7.785858471715882 -87.16333324068785
lclavicle -1.3159361476926339E-16 -4.48597507887541E-16
lhumerus 21.028121676238925 -12.452684040963064 45.304733547811985
lradius 70.02738673773452
lwrist -22.263840936360868
lhand -44.78451332389242 -70.25371893503957
lfingers 7.125020000000026
lthumb -17.572551005619417 -40.93217064756725
rfemur -24.697408935010362 -2.314931455351438 17.11113363907804
rtibia 54.50940192837678
rfoot -28.993709629885995 -16.654626078545554
rtoes -18.495112277801297
lfemur -25.90326889248286 2.438632218886842 -18.064487627777186
ltibia 53.19792758245985
lfoot -30.791270667627824 -3.4578834908666876
ltoes -20.870035869160162
132
root 0 0 0 1.0394943874258862 -3.672405813119113 1.8303710982135328
lowerback 11.978657036111253 0.8495005754821003 -0.06293490467515636
upperback -4.230567960752619 1.0787539695295618 -0.5428162022413019
thorax -11.341446037837724 0.49379334072608905 -0.7840525112614856
lowerneck -5.7803623240412865 1.4864512608778413 4.564867356216142
upperneck 18.034597196985537 2.9415141796147957 -8.343959888758638
head 6.5892107890812905 1.0740996982436437 -3.2247539291073135
rclavicle 1.8014970517683873E-16 -2.0270686408304594E-15
rhumerus 19.885487888244747 14.347151293968228 -47.73756780535132
rradius 72.22949239329276
rwrist 27.129354150562687
rhand -34.62693931881928 -57.10080342098213
rfingers 7.125020000000035
rthumb -7.779938492485255 -87.1550941130048
lclavicle -1.3804922807835587E-16 -4.386331293190579E-16
lhumerus 21.03006450731744 -12.455888899177397 45.30217013164716
lradius 70.02860531737088
lwrist -22.263623428959235
lhand -44.782657397716164 -70.23963113045707
lfingers 7.125020000000026
lthumb -17.570638523683677 -40.918315512072965
rfemur -24.695970985764582 -2.3136927730124723 17.11136949854997
rtibia 54.502610969840816
rfoot -28.994849795394092 -16.65442526999654
rtoes -18.494142685779146
lfemur -25.898487482731035 2.438759238214389 -18.063555933592724
ltibia 53.19349378945609
lfoot -30.795037608642442 -3.4556289715285855
ltoes -20.880266661934396
